<svg xmlns="http://www.w3.org/2000/svg" xmlns:xlink="http://www.w3.org/1999/xlink" xmlns:lucid="lucid" width="717.18" height="341.47"><g transform="translate(0 0)" lucid:page-tab-id="0_0"><path d="M450 45c0-2.77 2.24-5 5-5h170c2.76 0 5 2.23 5 5v62c0 2.75-2.24 5-5 5H455c-2.76 0-5-2.25-5-5z" fill="#fff"/><path d="M450 40h180v40H450z" fill="#ccc"/><path d="M450 45c0-2.77 2.24-5 5-5h170c2.76 0 5 2.23 5 5v62c0 2.75-2.24 5-5 5H455c-2.76 0-5-2.25-5-5zM450 80h180M540 80v32" stroke="#333" fill="none"/><use xlink:href="#a" transform="matrix(1,0,0,1,460,39.98892843020957) translate(12.83333333333333 16)"/><use xlink:href="#b" transform="matrix(1,0,0,1,455,82.48892843020957) translate(40.00000000000001 10.666666666666668)"/><use xlink:href="#b" transform="matrix(1,0,0,1,545,82.48892843020957) translate(40.00000000000001 10.666666666666668)"/><path d="M80 45c0-2.76 2.24-5 5-5h150c2.76 0 5 2.24 5 5v62c0 2.76-2.24 5-5 5H85c-2.76 0-5-2.24-5-5z" fill="#fff"/><path d="M80 40h160v40H80z" fill="#ccc"/><path d="M80 45c0-2.76 2.24-5 5-5h150c2.76 0 5 2.24 5 5v62c0 2.76-2.24 5-5 5H85c-2.76 0-5-2.24-5-5zM80 80h160M160 80v32" stroke="#333" fill="none"/><use xlink:href="#c" transform="matrix(1,0,0,1,90,40) translate(12.808641975308646 17.77777777777778)"/><use xlink:href="#d" transform="matrix(1,0,0,1,85,82.5) translate(35 14.4)"/><use xlink:href="#d" transform="matrix(1,0,0,1,165,82.5) translate(35 14.4)"/><path d="M400 204.97c0-2.76 2.24-5 5-5h270c2.76 0 5 2.24 5 5v62c0 2.76-2.24 5-5 5H405c-2.76 0-5-2.24-5-5z" fill="#fff"/><path d="M400 199.97h280v40H400z" fill="#ccc"/><path d="M400 204.97c0-2.76 2.24-5 5-5h270c2.76 0 5 2.24 5 5v62c0 2.76-2.24 5-5 5H405c-2.76 0-5-2.24-5-5zM400 239.97h280M538.28 239.97v32" stroke="#333" fill="none"/><use xlink:href="#e" transform="matrix(1,0,0,1,410,199.9697656840514) translate(2.611111111111105 16)"/><use xlink:href="#f" transform="matrix(1,0,0,1,410,199.9697656840514) translate(129 16)"/><use xlink:href="#b" transform="matrix(1,0,0,1,405,242.4697656840514) translate(64.81481481481482 10.666666666666668)"/><use xlink:href="#b" transform="matrix(1,0,0,1,543.2798345758615,242.4697656840514) translate(66.2962962962963 10.666666666666668)"/><path d="M20 205c0-2.76 2.24-5 5-5h230c2.76 0 5 2.24 5 5v62c0 2.76-2.24 5-5 5H25c-2.76 0-5-2.24-5-5z" fill="#fff"/><path d="M20 200h240v40H20z" fill="#ccc"/><path d="M20 205c0-2.76 2.24-5 5-5h230c2.76 0 5 2.24 5 5v62c0 2.76-2.24 5-5 5H25c-2.76 0-5-2.24-5-5zM20 240h240M158.28 240v32" stroke="#333" fill="none"/><use xlink:href="#g" transform="matrix(1,0,0,1,30,200) translate(35.61111111111111 16)"/><use xlink:href="#b" transform="matrix(1,0,0,1,25,242.5) translate(64.81481481481482 10.666666666666668)"/><use xlink:href="#b" transform="matrix(1,0,0,1,163.27983457586146,242.5) translate(46.2962962962963 10.666666666666668)"/><path d="M280.5 219.97h100.76" stroke="#333" stroke-width="3" fill="none"/><path d="M280.5 229.97v-20M260.5 219.97h20M398.83 229.97l-20-10 20-10M398.83 219.97h-20" stroke="#333" stroke-width="3" fill="#fff"/><path d="M260.5 59.96h170.76" stroke="#333" stroke-width="3" fill="none"/><path d="M260.5 69.96v-20M240.5 59.96h20M448.83 69.96l-20-10 20-10M448.83 59.96h-20" stroke="#333" stroke-width="3" fill="#fff"/><path d="M540 179.47v-48.75" stroke="#333" stroke-width="3" fill="none"/><path d="M550 179.47h-20M540 199.47v-20M550 113.16l-10 20-10-20M540 113.16v20" stroke="#333" stroke-width="3" fill="#fff"/><defs><path fill="#333" d="M201-28h31L212 72h-32l14-72H12L-2 72h-31l19-100h25c51-52 66-143 94-220h138zm-33 0l37-192h-77C102-156 88-78 49-28h119" id="h"/><path fill="#333" d="M11 0l48-248h184l-5 28H87l-15 79h140l-5 27H67L50-27h158l-5 27H11" id="i"/><path fill="#333" d="M99-119c-9 3-21 5-32 6L45 0H11l48-248h34L72-139c41-1 55-33 74-55l47-54h36c-35 37-64 80-103 112L189 0h-37" id="j"/><path fill="#333" d="M209-220h-88C93-150 81-63 35-11 23 2 3 6-19 1l5-27c46 7 54-46 66-83l46-139h149L199 0h-32" id="k"/><path fill="#333" d="M187 0l-14-72H61L19 0h-37l149-248h38L221 0h-34zm-19-99l-22-123L76-99h92" id="l"/><path fill="#333" d="M238-179c0 84-86 86-175 82L45 0H11l48-248c82 0 179-12 179 69zm-34 1c0-53-64-42-116-43l-19 98c63 0 135 9 135-55" id="m"/><path fill="#333" d="M240-28L220 72h-32l14-72H11l48-248h34L50-28h126l43-220h32L209-28h31" id="n"/><path fill="#333" d="M11 0l48-248h30L47-37l172-211h39L210 0h-30l42-209L52 0H11" id="o"/><g id="a"><use transform="matrix(0.05555555555555555,0,0,0.05555555555555555,0,0)" xlink:href="#h"/><use transform="matrix(0.05555555555555555,0,0,0.05555555555555555,14.055555555555557,0)" xlink:href="#i"/><use transform="matrix(0.05555555555555555,0,0,0.05555555555555555,27.38888888888889,0)" xlink:href="#j"/><use transform="matrix(0.05555555555555555,0,0,0.05555555555555555,39.16666666666667,0)" xlink:href="#k"/><use transform="matrix(0.05555555555555555,0,0,0.05555555555555555,52.833333333333336,0)" xlink:href="#l"/><use transform="matrix(0.05555555555555555,0,0,0.05555555555555555,66.16666666666667,0)" xlink:href="#m"/><use transform="matrix(0.05555555555555555,0,0,0.05555555555555555,77.94444444444446,0)" xlink:href="#l"/><use transform="matrix(0.05555555555555555,0,0,0.05555555555555555,91.27777777777779,0)" xlink:href="#n"/><use transform="matrix(0.05555555555555555,0,0,0.05555555555555555,105.77777777777779,0)" xlink:href="#o"/><use transform="matrix(0.05555555555555555,0,0,0.05555555555555555,120.05555555555557,0)" xlink:href="#o"/></g><path fill="#333" d="M179 0l43-219H87L45 0H11l48-248h202L213 0h-34" id="p"/><path fill="#333" d="M125-24c46 0 70-25 89-51l25 16C214-24 183 4 123 4 8 4-5-146 60-208c32-50 158-61 191-5 5 7 9 14 11 22l-32 10c-9-28-33-43-69-43-74 0-108 51-108 125 0 46 24 75 72 75" id="q"/><path fill="#333" d="M20-101c0-91 52-143 145-150 126-9 127 168 53 223-23 17-55 32-93 32C57 4 20-33 20-101zm216-33c5-57-18-91-73-90-77 1-110 51-110 125 0 49 23 75 73 75 72-1 104-45 110-110" id="r"/><path fill="#333" d="M179 0l23-115H67L45 0H11l48-248h34L72-143h135l21-105h32L212 0h-33" id="s"/><path fill="#333" d="M233 0l48-248h34L267 0h-34zm-19-77C214 16 103-1 11 0l48-248h34L72-143c71-2 142-3 142 66zm-34 2c0-52-63-40-113-41L50-27c57 1 130 7 130-48" id="t"/><g id="c"><use transform="matrix(0.06172839506172839,0,0,0.06172839506172839,0,0)" xlink:href="#p"/><use transform="matrix(0.06172839506172839,0,0,0.06172839506172839,16.049382716049383,0)" xlink:href="#i"/><use transform="matrix(0.06172839506172839,0,0,0.06172839506172839,30.864197530864196,0)" xlink:href="#m"/><use transform="matrix(0.06172839506172839,0,0,0.06172839506172839,45.67901234567901,0)" xlink:href="#q"/><use transform="matrix(0.06172839506172839,0,0,0.06172839506172839,61.41975308641975,0)" xlink:href="#r"/><use transform="matrix(0.06172839506172839,0,0,0.06172839506172839,78.7037037037037,0)" xlink:href="#s"/><use transform="matrix(0.06172839506172839,0,0,0.06172839506172839,94.69135802469135,0)" xlink:href="#t"/></g><path fill="#333" d="M176 0l-54-107L30 0H-7l115-131-60-117h35l48 97 83-97h37L146-129 211 0h-35" id="u"/><g id="e"><use transform="matrix(0.05555555555555555,0,0,0.05555555555555555,0,0)" xlink:href="#o"/><use transform="matrix(0.05555555555555555,0,0,0.05555555555555555,14.27777777777778,0)" xlink:href="#q"/><use transform="matrix(0.05555555555555555,0,0,0.05555555555555555,28.222222222222225,0)" xlink:href="#u"/><use transform="matrix(0.05555555555555555,0,0,0.05555555555555555,40.888888888888886,0)" xlink:href="#r"/><use transform="matrix(0.05555555555555555,0,0,0.05555555555555555,55.77777777777778,0)" xlink:href="#h"/><use transform="matrix(0.05555555555555555,0,0,0.05555555555555555,69.83333333333333,0)" xlink:href="#s"/><use transform="matrix(0.05555555555555555,0,0,0.05555555555555555,84.22222222222223,0)" xlink:href="#t"/><use transform="matrix(0.05555555555555555,0,0,0.05555555555555555,101.94444444444444,0)" xlink:href="#i"/></g><path fill="#333" d="M14-34c44 29 74-19 93-48L39-248h37l52 138 94-138h38L103-29C84-1 32 17-1-10" id="v"/><path fill="#333" d="M222 0l43-216c-8 16-17 34-26 49L143 0h-22L81-216 41 0H11l48-248h42l38 208 116-208h45L252 0h-30" id="w"/><path fill="#333" d="M151-220L108 0H75l42-220H32l6-28h203l-5 28h-85" id="x"/><g id="f"><use transform="matrix(0.05555555555555555,0,0,0.05555555555555555,0,0)" xlink:href="#h"/><use transform="matrix(0.05555555555555555,0,0,0.05555555555555555,14.055555555555557,0)" xlink:href="#r"/><use transform="matrix(0.05555555555555555,0,0,0.05555555555555555,29.61111111111111,0)" xlink:href="#j"/><use transform="matrix(0.05555555555555555,0,0,0.05555555555555555,41.38888888888889,0)" xlink:href="#v"/><use transform="matrix(0.05555555555555555,0,0,0.05555555555555555,54.16666666666667,0)" xlink:href="#w"/><use transform="matrix(0.05555555555555555,0,0,0.05555555555555555,70.77777777777779,0)" xlink:href="#i"/><use transform="matrix(0.05555555555555555,0,0,0.05555555555555555,84.11111111111111,0)" xlink:href="#s"/><use transform="matrix(0.05555555555555555,0,0,0.05555555555555555,98.50000000000001,0)" xlink:href="#x"/><use transform="matrix(0.05555555555555555,0,0,0.05555555555555555,110.66666666666669,0)" xlink:href="#t"/></g><path fill="#333" d="M218-248l-5 28H88L45 0H11l48-248h159" id="y"/><path fill="#333" d="M199-75C204 14 54 28 16-33 11-41 6-49 3-58l30-12c7 60 133 66 132-5-1-34-35-42-75-40l5-26c45 2 84-4 84-47 0-25-20-35-45-36-38 0-58 17-70 43l-30-10c17-38 49-60 102-60 43 0 78 18 78 59 0 39-26 58-62 64 26 6 45 21 47 53" id="z"/><g id="g"><use transform="matrix(0.05555555555555555,0,0,0.05555555555555555,0,0)" xlink:href="#r"/><use transform="matrix(0.05555555555555555,0,0,0.05555555555555555,15.555555555555557,0)" xlink:href="#m"/><use transform="matrix(0.05555555555555555,0,0,0.05555555555555555,28.888888888888886,0)" xlink:href="#y"/><use transform="matrix(0.05555555555555555,0,0,0.05555555555555555,38.16666666666667,0)" xlink:href="#l"/><use transform="matrix(0.05555555555555555,0,0,0.05555555555555555,51.50000000000001,0)" xlink:href="#s"/><use transform="matrix(0.05555555555555555,0,0,0.05555555555555555,65.8888888888889,0)" xlink:href="#o"/><use transform="matrix(0.05555555555555555,0,0,0.05555555555555555,80.16666666666667,0)" xlink:href="#z"/><use transform="matrix(0.05555555555555555,0,0,0.05555555555555555,92.3888888888889,0)" xlink:href="#l"/><use transform="matrix(0.05555555555555555,0,0,0.05555555555555555,105.72222222222223,0)" xlink:href="#n"/><use transform="matrix(0.05555555555555555,0,0,0.05555555555555555,120.22222222222224,0)" xlink:href="#o"/><use transform="matrix(0.05555555555555555,0,0,0.05555555555555555,134.50000000000003,0)" xlink:href="#o"/></g></defs></g></svg>